<svg xmlns="http://www.w3.org/2000/svg" viewBox="0 0 64 64" role="img" aria-labelledby="title desc">
  <title id="title">Bazil Bacchanalia Dazil</title>
  <desc id="desc">A minimal cosmic tarot eye inside a luminous border.</desc>
  <defs>
    <linearGradient id="field" x1="8" y1="7" x2="56" y2="58" gradientUnits="userSpaceOnUse">
      <stop stop-color="#24143f"/>
      <stop offset="1" stop-color="#090714"/>
    </linearGradient>
    <linearGradient id="mark" x1="17" y1="17" x2="47" y2="49" gradientUnits="userSpaceOnUse">
      <stop stop-color="#f5efcf"/>
      <stop offset=".52" stop-color="#c9ff45"/>
      <stop offset="1" stop-color="#9b5cff"/>
    </linearGradient>
  </defs>

  <!-- A bright keyline keeps the mark legible against Safari's dark chrome. -->
  <rect x="3" y="3" width="58" height="58" rx="16" fill="#080610" stroke="#c9ff45" stroke-width="2"/>
  <rect x="6.5" y="6.5" width="51" height="51" rx="13" fill="url(#field)" stroke="#f5efcf" stroke-width="1.5"/>

  <path d="M14 32c5.2-8 11.2-12 18-12s12.8 4 18 12c-5.2 8-11.2 12-18 12S19.2 40 14 32Z" fill="#0b0817" stroke="url(#mark)" stroke-width="2.2"/>
  <circle cx="32" cy="32" r="7" fill="url(#mark)"/>
  <circle cx="32" cy="32" r="2.6" fill="#120b25"/>
  <path d="M32 12v7M32 45v7M12 32h7M45 32h7" stroke="#f5efcf" stroke-linecap="round" stroke-width="1.5"/>
  <path d="m32 14 1.7 3.3L37 19l-3.3 1.7L32 24l-1.7-3.3L27 19l3.3-1.7L32 14Z" fill="#c9ff45"/>
</svg>
